# Blender v2.78 (sub 0) OBJ File: 'hexes.blend'
# www.blender.org
mtllib hexes.mtl
o Cylinder.5354_Cylinder.661
v -0.000000 -0.500000 -0.500000
v -0.000000 0.500000 -0.500000
v 0.500000 -0.500000 -0.250000
v 0.500000 0.500000 -0.250000
v 0.500000 -0.500000 0.250000
v 0.500000 0.500000 0.250000
v -0.000000 -0.500000 0.500000
v -0.000000 0.500000 0.500000
v -0.500000 -0.500000 0.250000
v -0.500000 0.500000 0.250000
v -0.500000 -0.500000 -0.250000
v -0.500000 0.500000 -0.250000
vn 0.4472 0.0000 -0.8944
vn 1.0000 0.0000 0.0000
vn 0.4472 0.0000 0.8944
vn -0.4472 0.0000 0.8944
vn 0.0000 1.0000 0.0000
vn -1.0000 0.0000 0.0000
vn -0.4472 0.0000 -0.8944
usemtl None
s off
f 1//1 2//1 4//1 3//1
f 3//2 4//2 6//2 5//2
f 5//3 6//3 8//3 7//3
f 7//4 8//4 10//4 9//4
f 4//5 2//5 12//5 10//5 8//5 6//5
f 9//6 10//6 12//6 11//6
f 11//7 12//7 2//7 1//7
