# Blender v2.78 (sub 0) OBJ File: 'shield_collider.blend'
# www.blender.org
mtllib shield_collider.mtl
o Cylinder_Cylinder.001
v 0.914453 -0.531296 0.066598
v 0.914453 0.531296 0.066598
v 0.820538 -0.531296 0.205667
v 0.820538 0.531296 0.205667
v 0.694858 -0.531296 0.356113
v 0.694858 0.531296 0.356113
v 0.542242 -0.531296 0.479148
v 0.542242 0.531296 0.479148
v 0.368555 -0.531296 0.570046
v 0.368555 0.531296 0.570046
v 0.180472 -0.531296 0.625313
v 0.180472 0.531296 0.625313
v -0.014778 -0.531296 0.642824
v -0.014778 0.531296 0.642824
v -0.209693 -0.531296 0.621908
v -0.209693 0.531296 0.621908
v -0.396783 -0.531296 0.563367
v -0.396783 0.531296 0.563367
v -0.568857 -0.531296 0.469452
v -0.568857 0.531296 0.469452
v -0.719302 -0.531296 0.343771
v -0.719302 0.531296 0.343771
v -0.842338 -0.531296 0.191155
v -0.842338 0.531296 0.191155
v -0.933236 -0.531296 0.050473
v -0.933236 0.531296 0.050473
v 0.826676 0.531296 0.041857
v 0.737882 -0.531296 0.151770
v 0.624769 0.531296 0.284788
v 0.487415 -0.531296 0.395522
v 0.161823 0.531296 0.527070
v -0.357710 -0.531296 0.471317
v -0.357710 0.531296 0.471317
v -0.647977 -0.531296 0.273682
v -0.758711 -0.531296 0.138710
v 0.826676 -0.531296 0.041857
v 0.737882 0.531296 0.151770
v 0.624769 -0.531296 0.284788
v 0.487415 0.531296 0.395522
v 0.331097 -0.531296 0.477328
v 0.331097 0.531296 0.477328
v 0.161823 -0.531296 0.527070
v -0.013908 -0.531296 0.542830
v -0.013908 0.531296 0.542830
v -0.189332 -0.531296 0.524004
v -0.189332 0.531296 0.524004
v -0.512578 -0.531296 0.386795
v -0.512578 0.531296 0.386795
v -0.647977 0.531296 0.273682
v -0.758711 0.531296 0.138710
v -0.844637 -0.531296 0.027270
v -0.844637 0.531296 0.027270
v -0.600000 -0.500000 -0.200000
v -0.800000 -0.500000 -0.200000
v -0.500000 0.500000 -0.200000
v -0.600000 0.500000 -0.200000
v 0.300000 0.500000 -0.200000
v 0.500000 0.500000 -0.200000
v 0.300000 -0.500000 -0.200000
v 0.200000 -0.500000 -0.200000
v 0.000000 -0.500000 -0.200000
v -0.200000 -0.500000 -0.200000
v -0.200000 0.500000 -0.200000
v 0.000000 0.500000 -0.200000
v -0.500000 -0.500000 -0.200000
v -0.800000 0.500000 -0.200000
v -0.800000 0.500000 -0.200000
v -0.800000 -0.500000 -0.200000
v 0.800000 0.500000 -0.200000
v 0.800000 -0.500000 -0.200000
v 0.700000 -0.500000 -0.200000
v 0.700000 0.500000 -0.200000
v 0.600000 -0.500000 -0.200000
v 0.600000 0.500000 -0.200000
v 0.500000 -0.500000 -0.200000
v 0.200000 0.500000 -0.200000
v -0.400000 -0.500000 -0.200000
v -0.400000 0.500000 -0.200000
vn 0.8287 0.0000 0.5597
vn 0.7674 0.0000 0.6411
vn 0.6276 0.0000 0.7785
vn 0.4637 0.0000 0.8860
vn 0.2819 0.0000 0.9594
vn 0.0893 0.0000 0.9960
vn -0.1067 0.0000 0.9943
vn -0.2986 0.0000 0.9544
vn -0.4791 0.0000 0.8778
vn -0.6411 0.0000 0.7674
vn -0.7785 0.0000 0.6276
vn -0.8399 0.0000 0.5427
vn 0.2713 0.0000 -0.9625
vn 0.0000 -1.0000 -0.0000
vn 0.0000 1.0000 -0.0000
vn -0.2533 0.0000 -0.9674
vn 0.0064 0.9990 -0.0451
vn -0.0445 -0.9965 -0.0712
vn 0.0064 -0.9990 -0.0451
vn 0.0021 0.9991 -0.0426
vn 0.0332 -0.9965 -0.0765
vn -0.0574 0.9935 -0.0985
vn -0.0018 0.9991 -0.0426
vn 0.0021 -0.9991 -0.0426
vn 0.1401 -0.9842 -0.1080
vn -0.0574 -0.9935 -0.0985
vn -0.0082 0.9990 -0.0446
vn -0.0018 -0.9991 -0.0426
vn 0.0000 0.0000 -1.0000
vn 0.0000 0.0000 1.0000
vn -0.0445 0.9965 -0.0712
vn 0.0332 0.9965 -0.0765
vn 0.0166 -0.9986 -0.0501
vn 0.0275 0.9980 -0.0573
vn -0.0268 -0.9980 -0.0575
vn 0.1401 0.9842 -0.1080
vn 0.0166 0.9986 -0.0501
vn -0.0112 0.9987 -0.0489
vn -0.0268 0.9980 -0.0575
vn -0.9813 0.0000 -0.1927
vn 0.0275 -0.9980 -0.0573
vn -0.0082 -0.9990 -0.0446
vn -0.0112 -0.9987 -0.0489
vn 0.9940 0.0000 -0.1096
usemtl None
s off
f 1//1 2//1 4//1 3//1
f 3//2 4//2 6//2 5//2
f 5//3 6//3 8//3 7//3
f 7//4 8//4 10//4 9//4
f 9//5 10//5 12//5 11//5
f 11//6 12//6 14//6 13//6
f 13//7 14//7 16//7 15//7
f 15//8 16//8 18//8 17//8
f 17//9 18//9 20//9 19//9
f 19//10 20//10 22//10 21//10
f 21//11 22//11 24//11 23//11
f 23//12 24//12 26//12 25//12
f 2//13 1//13 36//13 27//13
f 1//14 3//14 28//14 36//14
f 4//15 2//15 27//15 37//15
f 3//14 5//14 38//14 28//14
f 6//15 4//15 37//15 29//15
f 5//14 7//14 30//14 38//14
f 8//15 6//15 29//15 39//15
f 7//14 9//14 40//14 30//14
f 10//15 8//15 39//15 41//15
f 9//14 11//14 42//14 40//14
f 12//15 10//15 41//15 31//15
f 11//14 13//14 43//14 42//14
f 14//15 12//15 31//15 44//15
f 13//14 15//14 45//14 43//14
f 16//15 14//15 44//15 46//15
f 15//14 17//14 32//14 45//14
f 18//15 16//15 46//15 33//15
f 17//14 19//14 47//14 32//14
f 20//15 18//15 33//15 48//15
f 19//14 21//14 34//14 47//14
f 22//15 20//15 48//15 49//15
f 21//14 23//14 35//14 34//14
f 24//15 22//15 49//15 50//15
f 23//14 25//14 51//14 35//14
f 26//15 24//15 50//15 52//15
f 25//16 26//16 52//16 51//16
f 33//17 46//17 63//17 78//17
f 28//18 38//18 73//18 71//18
f 45//19 32//19 77//19 62//19
f 46//20 44//20 64//20 63//20
f 34//21 35//21 54//21 53//21
f 37//22 27//22 69//22 72//22
f 44//23 31//23 76//23 64//23
f 43//24 45//24 62//24 61//24
f 35//25 51//25 68//25 54//25
f 36//26 28//26 71//26 70//26
f 31//27 41//27 57//27 76//27
f 42//28 43//28 61//28 60//28
f 53//29 54//29 66//29 56//29
f 54//30 68//30 67//30 66//30
f 53//29 56//29 55//29 65//29
f 55//29 78//29 77//29 65//29
f 78//29 63//29 62//29 77//29
f 63//29 64//29 61//29 62//29
f 61//29 64//29 76//29 60//29
f 76//29 57//29 59//29 60//29
f 57//29 58//29 75//29 59//29
f 75//29 58//29 74//29 73//29
f 74//29 72//29 71//29 73//29
f 71//29 72//29 69//29 70//29
f 29//31 37//31 72//31 74//31
f 50//32 49//32 56//32 66//32
f 32//33 47//33 65//33 77//33
f 49//34 48//34 55//34 56//34
f 38//35 30//35 75//35 73//35
f 52//36 50//36 66//36 67//36
f 48//37 33//37 78//37 55//37
f 41//38 39//38 58//38 57//38
f 39//39 29//39 74//39 58//39
f 51//40 52//40 67//40 68//40
f 47//41 34//41 53//41 65//41
f 40//42 42//42 60//42 59//42
f 30//43 40//43 59//43 75//43
f 27//44 36//44 70//44 69//44
