# Blender v2.78 (sub 0) OBJ File: 'shield.blend'
# www.blender.org
mtllib shield.mtl
o Cylinder_Cylinder.001
v 0.914453 -0.531296 0.033593
v 0.914453 0.531296 0.033593
v 0.820538 -0.531296 0.205667
v 0.820538 0.531296 0.205667
v 0.694858 -0.531296 0.356113
v 0.694858 0.531296 0.356113
v 0.542242 -0.531296 0.479148
v 0.542242 0.531296 0.479148
v 0.368555 -0.531296 0.570046
v 0.368555 0.531296 0.570046
v 0.180472 -0.531296 0.625313
v 0.180472 0.531296 0.625313
v -0.014778 -0.531296 0.642824
v -0.014778 0.531296 0.642824
v -0.209693 -0.531296 0.621908
v -0.209693 0.531296 0.621908
v -0.396783 -0.531296 0.563367
v -0.396783 0.531296 0.563367
v -0.568857 -0.531296 0.469452
v -0.568857 0.531296 0.469452
v -0.719302 -0.531296 0.343771
v -0.719302 0.531296 0.343771
v -0.842338 -0.531296 0.191155
v -0.842338 0.531296 0.191155
v -0.933236 -0.531296 0.017468
v -0.933236 0.531296 0.017468
v 0.826676 0.531296 -0.014312
v 0.737882 -0.531296 0.149388
v 0.624769 0.531296 0.284788
v 0.487415 -0.531296 0.395522
v 0.161823 0.531296 0.527070
v -0.357710 -0.531296 0.471317
v -0.357710 0.531296 0.471317
v -0.647977 -0.531296 0.273682
v -0.758711 -0.531296 0.136328
v 0.826676 -0.531296 -0.014312
v 0.737882 0.531296 0.149388
v 0.624769 -0.531296 0.284788
v 0.487415 0.531296 0.395522
v 0.331097 -0.531296 0.477328
v 0.331097 0.531296 0.477328
v 0.161823 -0.531296 0.527070
v -0.013908 -0.531296 0.542830
v -0.013908 0.531296 0.542830
v -0.189332 -0.531296 0.524004
v -0.189332 0.531296 0.524004
v -0.512578 -0.531296 0.386795
v -0.512578 0.531296 0.386795
v -0.647977 0.531296 0.273682
v -0.758711 0.531296 0.136328
v -0.844637 -0.531296 -0.028899
v -0.844637 0.531296 -0.028899
vn 0.8778 0.0000 0.4791
vn 0.7674 0.0000 0.6411
vn 0.6276 0.0000 0.7785
vn 0.4637 0.0000 0.8860
vn 0.2819 0.0000 0.9594
vn 0.0893 0.0000 0.9960
vn -0.1067 0.0000 0.9943
vn -0.2986 0.0000 0.9544
vn -0.4791 0.0000 0.8778
vn -0.6411 0.0000 0.7674
vn -0.7785 0.0000 0.6276
vn -0.8860 0.0000 0.4637
vn 0.4791 0.0000 -0.8778
vn 0.0000 -1.0000 -0.0000
vn 0.0000 1.0000 -0.0000
vn -0.4637 0.0000 -0.8860
vn 0.7785 0.0000 -0.6276
vn 0.8872 0.0000 -0.4614
vn 0.6411 0.0000 -0.7674
vn 0.2986 0.0000 -0.9544
vn 0.1067 0.0000 -0.9943
vn -0.0893 0.0000 -0.9960
vn -0.2819 0.0000 -0.9594
vn -0.6276 0.0000 -0.7785
vn -0.7674 0.0000 -0.6411
vn -0.8790 0.0000 -0.4768
usemtl None
s off
f 1//1 2//1 4//1 3//1
f 3//2 4//2 6//2 5//2
f 5//3 6//3 8//3 7//3
f 7//4 8//4 10//4 9//4
f 9//5 10//5 12//5 11//5
f 11//6 12//6 14//6 13//6
f 13//7 14//7 16//7 15//7
f 15//8 16//8 18//8 17//8
f 17//9 18//9 20//9 19//9
f 19//10 20//10 22//10 21//10
f 21//11 22//11 24//11 23//11
f 23//12 24//12 26//12 25//12
f 2//13 1//13 36//13 27//13
f 1//14 3//14 28//14 36//14
f 4//15 2//15 27//15 37//15
f 3//14 5//14 38//14 28//14
f 6//15 4//15 37//15 29//15
f 5//14 7//14 30//14 38//14
f 8//15 6//15 29//15 39//15
f 7//14 9//14 40//14 30//14
f 10//15 8//15 39//15 41//15
f 9//14 11//14 42//14 40//14
f 12//15 10//15 41//15 31//15
f 11//14 13//14 43//14 42//14
f 14//15 12//15 31//15 44//15
f 13//14 15//14 45//14 43//14
f 16//15 14//15 44//15 46//15
f 15//14 17//14 32//14 45//14
f 18//15 16//15 46//15 33//15
f 17//14 19//14 47//14 32//14
f 20//15 18//15 33//15 48//15
f 19//14 21//14 34//14 47//14
f 22//15 20//15 48//15 49//15
f 21//14 23//14 35//14 34//14
f 24//15 22//15 49//15 50//15
f 23//14 25//14 51//14 35//14
f 26//15 24//15 50//15 52//15
f 25//16 26//16 52//16 51//16
f 34//17 35//17 50//17 49//17
f 35//18 51//18 52//18 50//18
f 34//19 49//19 48//19 47//19
f 48//13 33//13 32//13 47//13
f 33//20 46//20 45//20 32//20
f 46//21 44//21 43//21 45//21
f 43//22 44//22 31//22 42//22
f 31//23 41//23 40//23 42//23
f 41//16 39//16 30//16 40//16
f 30//24 39//24 29//24 38//24
f 29//25 37//25 28//25 38//25
f 28//26 37//26 27//26 36//26
